# xmcd
#
# Track frame offsets:
#	150
#	11545
#	31337
#	48182
#	64159
#	80410
#	98444
#	115456
#	134061
#	152688
#	168713
#	184469
#	199424
#	219043
#	235193
#	254621
#	286049
#
# Disc length: 3828 seconds
#
# Revision: 1
# Processed by: cddbd v1.5.2PL0 Copyright (c) Steve Scherf et al.
# Submitted via: audiograbber 1.83.01
#
DISCID=ee0ef211
DTITLE=Chartbusters - Country 500 Vol.1 d.30 8532-30
DYEAR=1900
DGENRE=karaoke
TTITLE0=Joe Nichols - What's a Guy Gotta Do
TTITLE1=Keith Urban - You're My Better Half
TTITLE2=Terri Clark - Girls lie too
TTITLE3=Craig Morgan - That's What I Love About Sunday
TTITLE4=Trace Adkins - Songs about me
TTITLE5=Rascal Flatts - Bless the broken road
TTITLE6=Lee Ann Womack - I May Hate Myself in the Morning
TTITLE7=Brooks and Dunn - It's Getting Better All the Time
TTITLE8=George Strait - I hate everything
TTITLE9=Alan Jackson - Monday Morning Church
TTITLE10=Jo Dee Messina - My Give a Damn's Busted
TTITLE11=Jeff Bates - Long, Slow Kisses
TTITLE12=Montgomery Gentry - Gone
TTITLE13=Blake Shelton - Some Beach
TTITLE14=Gretchen Wilson - When I think about cheating
TTITLE15=Sugarland - Baby girl
TTITLE16=Data - Track
EXTD=
EXTT0=
EXTT1=
EXTT2=
EXTT3=
EXTT4=
EXTT5=
EXTT6=
EXTT7=
EXTT8=
EXTT9=
EXTT10=
EXTT11=
EXTT12=
EXTT13=
EXTT14=
EXTT15=
EXTT16=
PLAYORDER=
